HIERARCHY
ROOT Hips
{
	OFFSET -0.726467 86.094116 2.458319
	CHANNELS 6 Xposition Yposition Zposition Zrotation Yrotation Xrotation 
	JOINT Spine
	{
		OFFSET -0.000000 8.814246 -2.080107
		CHANNELS 3 Zrotation Yrotation Xrotation
		JOINT Spine1
		{
			OFFSET -0.000000 8.844141 -0.000000
			CHANNELS 3 Zrotation Yrotation Xrotation
			JOINT Spine2
			{
				OFFSET -0.000000 11.682268 -0.000000
				CHANNELS 3 Zrotation Yrotation Xrotation
				JOINT Spine3
				{
					OFFSET -0.000000 11.746700 0.000000
					CHANNELS 3 Zrotation Yrotation Xrotation
					JOINT Neck
					{
						OFFSET -0.000000 17.658264 -0.000000
						CHANNELS 3 Zrotation Yrotation Xrotation
						JOINT Neck1
						{
							OFFSET -0.000000 5.101515 0.000000
							CHANNELS 3 Zrotation Yrotation Xrotation
							JOINT Head
							{
								OFFSET -0.000000 5.101515 0.000000
								CHANNELS 3 Zrotation Yrotation Xrotation
								JOINT HeadEnd
								{
									OFFSET -0.000000 11.655085 0.000000
									CHANNELS 3 Zrotation Yrotation Xrotation
									End Site
									{
										OFFSET 0.000000 0.000000 0.000000
									}
								}
							}
						}
					}
					JOINT RightShoulder
					{
						OFFSET -2.625389 11.175210 -0.000000
						CHANNELS 3 Zrotation Yrotation Xrotation
						JOINT RightArm
						{
							OFFSET 0.000000 10.434715 -0.000000
							CHANNELS 3 Zrotation Yrotation Xrotation
							JOINT RightForeArm
							{
								OFFSET 0.000000 29.628420 -0.000000
								CHANNELS 3 Zrotation Yrotation Xrotation
								JOINT RightHand
								{
									OFFSET 0.000000 22.857611 0.000000
									CHANNELS 3 Zrotation Yrotation Xrotation
									JOINT RightHandThumb1
									{
										OFFSET -2.867323 3.959563 2.944291
										CHANNELS 3 Zrotation Yrotation Xrotation
										JOINT RightHandThumb2
										{
											OFFSET 0.000000 3.350399 0.000000
											CHANNELS 3 Zrotation Yrotation Xrotation
											JOINT RightHandThumb3
											{
												OFFSET -0.000000 3.756509 -0.000000
												CHANNELS 3 Zrotation Yrotation Xrotation
												JOINT RightHandThumb4
												{
													OFFSET 0.000000 3.147345 -0.000000
													CHANNELS 3 Zrotation Yrotation Xrotation
													End Site
													{
														OFFSET 0.000000 0.000000 0.000000
													}
												}
											}
										}
									}
									JOINT RightHandIndex1
									{
										OFFSET -0.086752 10.030893 2.345280
										CHANNELS 3 Zrotation Yrotation Xrotation
										JOINT RightHandIndex2
										{
											OFFSET 0.000000 4.061090 0.000000
											CHANNELS 3 Zrotation Yrotation Xrotation
											JOINT RightHandIndex3
											{
												OFFSET -0.000000 3.248873 -0.000000
												CHANNELS 3 Zrotation Yrotation Xrotation
												JOINT RightHandIndex4
												{
													OFFSET 0.000000 2.639709 -0.000000
													CHANNELS 3 Zrotation Yrotation Xrotation
													End Site
													{
														OFFSET 0.000000 0.000000 0.000000
													}
												}
											}
										}
									}
									JOINT RightHandMiddle1
									{
										OFFSET 0.104102 9.502952 0.006768
										CHANNELS 3 Zrotation Yrotation Xrotation
										JOINT RightHandMiddle2
										{
											OFFSET 0.000000 4.568727 0.000000
											CHANNELS 3 Zrotation Yrotation Xrotation
											JOINT RightHandMiddle3
											{
												OFFSET -0.000000 3.654981 -0.000000
												CHANNELS 3 Zrotation Yrotation Xrotation
												JOINT RightHandMiddle4
												{
													OFFSET 0.000000 2.741236 0.000000
													CHANNELS 3 Zrotation Yrotation Xrotation
													End Site
													{
														OFFSET 0.000000 0.000000 0.000000
													}
												}
											}
										}
									}
									JOINT RightHandRing1
									{
										OFFSET 0.086752 8.921708 -2.267442
										CHANNELS 3 Zrotation Yrotation Xrotation
										JOINT RightHandRing2
										{
											OFFSET 0.000000 4.061090 -0.000000
											CHANNELS 3 Zrotation Yrotation Xrotation
											JOINT RightHandRing3
											{
												OFFSET 0.000000 3.654981 0.000000
												CHANNELS 3 Zrotation Yrotation Xrotation
												JOINT RightHandRing4
												{
													OFFSET 0.000000 2.741236 -0.000000
													CHANNELS 3 Zrotation Yrotation Xrotation
													End Site
													{
														OFFSET 0.000000 0.000000 0.000000
													}
												}
											}
										}
									}
									JOINT RightHandPinky1
									{
										OFFSET -0.173504 7.976997 -4.467199
										CHANNELS 3 Zrotation Yrotation Xrotation
										JOINT RightHandPinky2
										{
											OFFSET 0.000000 3.350399 -0.000000
											CHANNELS 3 Zrotation Yrotation Xrotation
											JOINT RightHandPinky3
											{
												OFFSET -0.000000 2.842763 0.000000
												CHANNELS 3 Zrotation Yrotation Xrotation
												JOINT RightHandPinky4
												{
													OFFSET -0.000000 2.639709 -0.000000
													CHANNELS 3 Zrotation Yrotation Xrotation
													End Site
													{
														OFFSET 0.000000 0.000000 0.000000
													}
												}
											}
										}
									}
									JOINT RightForeArmEnd
									{
										OFFSET 0.000000 0.000000 0.000000
										CHANNELS 3 Zrotation Yrotation Xrotation
										End Site
										{
											OFFSET 0.000000 0.000000 0.000000
										}
									}
								}
								JOINT RightArmEnd
								{
									OFFSET 0.000000 0.000000 0.000000
									CHANNELS 3 Zrotation Yrotation Xrotation
									End Site
									{
										OFFSET 0.000000 0.000000 0.000000
									}
								}
							}
						}
					}
					JOINT LeftShoulder
					{
						OFFSET 2.625389 11.175210 -0.000000
						CHANNELS 3 Zrotation Yrotation Xrotation
						JOINT LeftArm
						{
							OFFSET -0.000000 10.813635 0.000000
							CHANNELS 3 Zrotation Yrotation Xrotation
							JOINT LeftForeArm
							{
								OFFSET -0.000000 28.724781 -0.000000
								CHANNELS 3 Zrotation Yrotation Xrotation
								JOINT LeftHand
								{
									OFFSET 0.644384 25.716167 -0.328871
									CHANNELS 3 Zrotation Yrotation Xrotation
									JOINT LeftHandThumb1
									{
										OFFSET 2.867323 3.959563 2.944291
										CHANNELS 3 Zrotation Yrotation Xrotation
										JOINT LeftHandThumb2
										{
											OFFSET -0.000000 3.350399 0.000000
											CHANNELS 3 Zrotation Yrotation Xrotation
											JOINT LeftHandThumb3
											{
												OFFSET 0.000000 3.756509 -0.000000
												CHANNELS 3 Zrotation Yrotation Xrotation
												JOINT LeftHandThumb4
												{
													OFFSET 0.000000 3.100000 -0.000000
													CHANNELS 3 Zrotation Yrotation Xrotation
													End Site
													{
														OFFSET 0.000000 0.000000 0.000000
													}
												}
											}
										}
									}
									JOINT LeftHandIndex1
									{
										OFFSET 0.086752 10.030893 2.345280
										CHANNELS 3 Zrotation Yrotation Xrotation
										JOINT LeftHandIndex2
										{
											OFFSET -0.000000 4.061090 -0.000000
											CHANNELS 3 Zrotation Yrotation Xrotation
											JOINT LeftHandIndex3
											{
												OFFSET -0.000000 3.248873 0.000000
												CHANNELS 3 Zrotation Yrotation Xrotation
												JOINT LeftHandIndex4
												{
													OFFSET -0.000000 2.639709 0.000000
													CHANNELS 3 Zrotation Yrotation Xrotation
													End Site
													{
														OFFSET 0.000000 0.000000 0.000000
													}
												}
											}
										}
									}
									JOINT LeftHandMiddle1
									{
										OFFSET -0.104102 9.502952 0.006768
										CHANNELS 3 Zrotation Yrotation Xrotation
										JOINT LeftHandMiddle2
										{
											OFFSET 0.000000 4.568727 -0.000000
											CHANNELS 3 Zrotation Yrotation Xrotation
											JOINT LeftHandMiddle3
											{
												OFFSET -0.000000 3.654981 0.000000
												CHANNELS 3 Zrotation Yrotation Xrotation
												JOINT LeftHandMiddle4
												{
													OFFSET -0.000000 2.741236 0.000000
													CHANNELS 3 Zrotation Yrotation Xrotation
													End Site
													{
														OFFSET 0.000000 0.000000 0.000000
													}
												}
											}
										}
									}
									JOINT LeftHandRing1
									{
										OFFSET -0.086752 8.921708 -2.267442
										CHANNELS 3 Zrotation Yrotation Xrotation
										JOINT LeftHandRing2
										{
											OFFSET -0.000000 4.061090 -0.000000
											CHANNELS 3 Zrotation Yrotation Xrotation
											JOINT LeftHandRing3
											{
												OFFSET 0.000000 3.654981 -0.000000
												CHANNELS 3 Zrotation Yrotation Xrotation
												JOINT LeftHandRing4
												{
													OFFSET 0.000000 2.741236 -0.000000
													CHANNELS 3 Zrotation Yrotation Xrotation
													End Site
													{
														OFFSET 0.000000 0.000000 0.000000
													}
												}
											}
										}
									}
									JOINT LeftHandPinky1
									{
										OFFSET 0.173504 7.976997 -4.467199
										CHANNELS 3 Zrotation Yrotation Xrotation
										JOINT LeftHandPinky2
										{
											OFFSET 0.000000 3.350399 -0.000000
											CHANNELS 3 Zrotation Yrotation Xrotation
											JOINT LeftHandPinky3
											{
												OFFSET -0.000000 2.842763 0.000000
												CHANNELS 3 Zrotation Yrotation Xrotation
												JOINT LeftHandPinky4
												{
													OFFSET -0.000000 2.639709 -0.000000
													CHANNELS 3 Zrotation Yrotation Xrotation
													End Site
													{
														OFFSET 0.000000 0.000000 0.000000
													}
												}
											}
										}
									}
									JOINT LeftForeArmEnd
									{
										OFFSET 0.000000 0.000000 0.000000
										CHANNELS 3 Zrotation Yrotation Xrotation
										End Site
										{
											OFFSET 0.000000 0.000000 0.000000
										}
									}
								}
								JOINT LeftArmEnd
								{
									OFFSET 0.000000 0.000000 0.000000
									CHANNELS 3 Zrotation Yrotation Xrotation
									End Site
									{
										OFFSET 0.000000 0.000000 0.000000
									}
								}
							}
						}
					}
				}
			}
		}
	}
	JOINT RightUpLeg
	{
		OFFSET -11.289943 0.000000 0.000000
		CHANNELS 3 Zrotation Yrotation Xrotation
		JOINT RightLeg
		{
			OFFSET 0.000000 -38.200325 0.000000
			CHANNELS 3 Zrotation Yrotation Xrotation
			JOINT RightFoot
			{
				OFFSET -0.000000 -39.900856 -0.000000
				CHANNELS 3 Zrotation Yrotation Xrotation
				JOINT RightToeBase
				{
					OFFSET 0.000000 0.000000 15.261641
					CHANNELS 3 Zrotation Yrotation Xrotation
					JOINT RightToeBaseEnd
					{
						OFFSET -0.000000 -0.000000 7.370709
						CHANNELS 3 Zrotation Yrotation Xrotation
						End Site
						{
							OFFSET 0.000000 0.000000 0.000000
						}
					}
				}
				JOINT RightLegEnd
				{
					OFFSET 0.000000 0.000000 0.000000
					CHANNELS 3 Zrotation Yrotation Xrotation
					End Site
					{
						OFFSET 0.000000 0.000000 0.000000
					}
				}
			}
			JOINT RightUpLegEnd
			{
				OFFSET 0.000000 0.000000 0.000000
				CHANNELS 3 Zrotation Yrotation Xrotation
				End Site
				{
					OFFSET 0.000000 0.000000 0.000000
				}
			}
		}
	}
	JOINT LeftUpLeg
	{
		OFFSET 11.315661 0.000000 -0.000000
		CHANNELS 3 Zrotation Yrotation Xrotation
		JOINT LeftLeg
		{
			OFFSET 0.000000 -38.200325 -0.000000
			CHANNELS 3 Zrotation Yrotation Xrotation
			JOINT LeftFoot
			{
				OFFSET 0.000000 -39.900856 0.000000
				CHANNELS 3 Zrotation Yrotation Xrotation
				JOINT LeftToeBase
				{
					OFFSET 0.000000 -0.000000 15.261641
					CHANNELS 3 Zrotation Yrotation Xrotation
					JOINT LeftToeBaseEnd
					{
						OFFSET 0.000000 0.000000 7.539996
						CHANNELS 3 Zrotation Yrotation Xrotation
						End Site
						{
							OFFSET 0.000000 0.000000 0.000000
						}
					}
				}
				JOINT LeftLegEnd
				{
					OFFSET 0.000000 0.000000 0.000000
					CHANNELS 3 Zrotation Yrotation Xrotation
					End Site
					{
						OFFSET 0.000000 0.000000 0.000000
					}
				}
			}
			JOINT LeftUpLegEnd
			{
				OFFSET 0.000000 0.000000 0.000000
				CHANNELS 3 Zrotation Yrotation Xrotation
				End Site
				{
					OFFSET 0.000000 0.000000 0.000000
				}
			}
		}
	}
}
MOTION
Frames: 4
Frame Time: 0.016667
1.101566 85.812881 12.496035 4.011571 -11.409388 -17.370277 -2.956192 0.698694 6.180258 -4.754463 1.421834 2.782646 3.521823 -2.516582 12.376156 1.296467 -0.206543 2.470642 -7.410587 2.864162 15.516972 3.633079 3.318347 -3.211810 -1.193382 -3.469532 -23.847347 0.000000 0.000000 0.000000 96.632759 -1.299185 3.399422 57.618877 -31.706440 5.298100 0.948811 14.712804 44.629688 4.327322 18.128578 -12.753089 7.913600 -1.514082 41.062115 0.000018 0.000010 -20.055706 -0.000016 0.000037 -13.761202 -0.000003 0.000004 -0.000036 6.095315 17.153772 -14.162834 6.559277 -0.900866 -1.634466 6.612947 0.110206 -1.522582 0.000015 -0.000001 -0.000006 7.930395 7.026203 -15.065286 7.042558 -0.949970 -0.718953 7.060127 0.042531 -0.592988 0.000013 0.000006 0.000027 14.697543 -8.869983 -14.791356 8.289424 1.930663 1.095644 8.112281 -0.057934 0.833119 -0.000010 0.000339 0.000022 20.338839 -25.023193 -15.633899 8.916347 3.789526 3.353406 8.537971 -0.227881 2.836254 -0.000233 0.000009 -0.000020 0.000000 0.000000 0.000000 0.000000 0.000000 0.000000 -96.346001 0.938939 4.278760 -58.198952 34.655251 -0.438457 -4.466588 -18.212950 59.078579 2.294697 -3.491042 -12.385959 -7.706124 1.457412 41.311108 -0.000014 0.000022 -18.756510 -0.000094 -0.000004 -13.243298 0.001199 -0.000025 0.001963 -4.601057 17.305332 -7.656067 -2.503786 -0.846562 1.912223 -2.563804 0.116162 1.794909 0.000031 0.000046 0.000013 -5.381586 7.106853 -9.958508 -3.060263 -0.946724 0.825544 -3.281385 0.050991 0.701381 0.000373 -0.000069 0.000028 -5.436288 -9.007499 -12.717508 -4.962514 1.926054 -1.259069 -4.802484 -0.073364 -0.963142 0.001446 -0.000010 -0.000004 -2.009424 -25.466066 -17.856070 -5.713741 3.754203 -3.571642 -5.783495 -0.242623 -3.053082 -0.000141 0.000001 -0.000052 0.000000 0.000000 0.000000 0.000000 0.000000 0.000000 -12.059492 7.745238 7.341766 -0.460449 -1.143189 24.940804 2.733050 2.823221 11.011787 -0.547324 -0.650234 -28.203590 0.000000 0.000000 0.000000 0.000000 0.000000 0.000000 0.000000 0.000000 0.000000 -2.779102 14.482474 18.308493 0.191244 0.831746 13.295374 3.548160 21.260048 13.322422 0.380174 0.694423 -27.887257 0.000000 0.000000 0.000000 0.000000 0.000000 0.000000 0.000000 0.000000 0.000000 
0.674446 85.832062 12.611697 3.858156 -11.364422 -17.453949 -2.821516 0.672964 6.211851 -4.783251 1.422236 2.725844 3.708362 -2.621347 12.471599 1.305170 -0.226648 2.441273 -7.377509 2.917695 15.517620 3.627851 3.367302 -3.215628 -1.231814 -3.472689 -23.846333 0.000000 0.000000 0.000000 96.681618 -1.297320 3.387564 57.441875 -31.690802 5.327555 0.938253 14.644304 44.737549 4.286459 18.062494 -12.679106 7.945717 -1.517505 41.047112 0.000018 0.000010 -20.135483 -0.000016 0.000037 -13.819182 -0.000003 0.000005 -0.000036 6.315951 17.154657 -14.143629 6.660465 -0.897614 -1.652899 6.702222 0.113804 -1.538278 0.000016 -0.000001 -0.000006 8.108417 7.026875 -15.038759 7.131919 -0.949015 -0.725656 7.146729 0.043346 -0.598405 0.000014 0.000008 0.000026 14.830707 -8.868380 -14.763132 8.357664 1.929283 1.103858 8.180171 -0.058934 0.839252 -0.000009 0.000395 0.000022 20.411886 -25.021799 -15.625720 8.958017 3.786652 3.374631 8.579627 -0.230753 2.851786 -0.000229 0.000009 -0.000020 0.000000 0.000000 0.000000 0.000000 0.000000 0.000000 -96.387390 0.942005 4.285113 -58.259823 34.575520 -0.431299 -4.471603 -18.214666 58.771420 2.121721 -3.641435 -12.393156 -7.815439 1.471358 41.259911 -0.000015 0.000022 -19.034668 -0.000094 -0.000004 -13.432899 0.001186 -0.000026 0.001910 -5.126204 17.305050 -7.770788 -2.751188 -0.843557 1.935091 -2.812919 0.119053 1.814221 0.000032 0.000027 0.000013 -5.844653 7.106633 -10.028974 -3.309350 -0.945797 0.832860 -3.536079 0.051967 0.708513 0.000368 -0.000069 0.000030 -5.857293 -9.005837 -12.728941 -5.197349 1.924359 -1.270741 -5.045181 -0.074431 -0.971429 0.001377 -0.000011 -0.000004 -2.383887 -25.462206 -17.821753 -5.906402 3.750149 -3.605004 -5.980163 -0.246562 -3.080166 -0.000132 0.000001 -0.000053 0.000000 0.000000 0.000000 0.000000 0.000000 0.000000 -11.631370 7.653475 7.735935 -0.452571 -1.137710 24.645676 2.472444 2.726066 10.878871 -0.535546 -0.628218 -28.099066 0.000000 0.000000 0.000000 0.000000 0.000000 0.000000 0.000000 0.000000 0.000000 -2.220655 14.450496 18.625715 0.198218 0.865117 13.238165 3.120806 21.162649 13.221978 0.420193 0.675732 -27.825285 0.000000 0.000000 0.000000 0.000000 0.000000 0.000000 0.000000 0.000000 0.000000 
0.233227 85.854897 12.726240 3.685784 -11.297698 -17.528030 -2.676527 0.644941 6.246034 -4.815970 1.423595 2.669232 3.907150 -2.733840 12.567124 1.312678 -0.247060 2.409154 -7.342978 2.961270 15.508709 3.619467 3.407933 -3.224340 -1.270242 -3.475529 -23.841648 0.000000 0.000000 0.000000 96.727272 -1.294237 3.379195 57.258919 -31.685778 5.355548 0.928494 14.565345 44.785847 4.246263 18.023039 -12.636195 7.980092 -1.521063 41.031193 0.000018 0.000010 -20.220768 -0.000015 0.000036 -13.880967 -0.000002 0.000005 -0.000036 6.544508 17.154884 -14.130910 6.768652 -0.893994 -1.672804 6.798662 0.117718 -1.555435 0.000016 -0.000001 -0.000006 8.294949 7.027449 -15.016544 7.227905 -0.947905 -0.732884 7.239337 0.044272 -0.604319 0.000014 0.000009 0.000026 14.967752 -8.866965 -14.734275 8.430789 1.927707 1.112743 8.253445 -0.060083 0.845904 -0.000009 0.000451 0.000021 20.482508 -25.021084 -15.611631 9.001094 3.783161 3.397466 8.623476 -0.234014 2.868659 -0.000226 0.000009 -0.000021 0.000000 0.000000 0.000000 0.000000 0.000000 0.000000 -96.427803 0.945051 4.292417 -58.329525 34.488811 -0.432576 -4.475874 -18.207964 58.447838 1.965484 -3.794414 -12.421005 -7.920942 1.484835 41.210270 -0.000015 0.000022 -19.303946 -0.000094 -0.000004 -13.615520 0.001164 -0.000027 0.001859 -5.636075 17.303417 -7.880727 -2.996351 -0.840627 1.957098 -3.060070 0.121861 1.833068 0.000032 0.000011 0.000013 -6.291309 7.106194 -10.096696 -3.556549 -0.944828 0.839891 -3.788512 0.052922 0.715463 0.000365 -0.000069 0.000031 -6.262103 -9.004333 -12.737360 -5.431285 1.922598 -1.282151 -5.286949 -0.075479 -0.979525 0.001305 -0.000011 -0.000004 -2.741468 -25.459774 -17.785933 -6.098961 3.745982 -3.637620 -6.176964 -0.250463 -3.106790 -0.000124 0.000001 -0.000053 0.000000 0.000000 0.000000 0.000000 0.000000 0.000000 -11.168907 7.547304 8.138738 -0.444049 -1.131089 24.348171 2.201433 2.607404 10.755744 -0.522341 -0.605602 -27.998449 0.000000 0.000000 0.000000 0.000000 0.000000 0.000000 0.000000 0.000000 0.000000 -1.636720 14.391998 18.938311 0.205377 0.898986 13.183744 2.685492 21.049147 13.121316 0.462273 0.657263 -27.765959 0.000000 0.000000 0.000000 0.000000 0.000000 0.000000 0.000000 0.000000 0.000000 
-0.220600 85.881256 12.839330 3.494371 -11.209105 -17.592228 -2.521247 0.614552 6.282871 -4.852895 1.426097 2.613061 4.118562 -2.854112 12.662396 1.318894 -0.267516 2.374739 -7.306517 2.992763 15.489450 3.607844 3.438644 -3.238174 -1.307963 -3.478173 -23.833227 0.000000 0.000000 0.000000 96.769791 -1.290317 3.373583 57.070942 -31.688593 5.380439 0.920150 14.477547 44.773705 4.205489 18.014898 -12.624386 8.016823 -1.524765 41.014332 0.000018 0.000010 -20.311714 -0.000015 0.000036 -13.946626 -0.000002 0.000005 -0.000036 6.781975 17.154329 -14.123965 6.884348 -0.890035 -1.693995 6.903034 0.121915 -1.573896 0.000016 -0.000001 -0.000007 8.491057 7.027881 -14.998135 7.331146 -0.946645 -0.740598 7.338600 0.045306 -0.610683 0.000014 0.000009 0.000025 15.109662 -8.865751 -14.704461 8.509760 1.925938 1.122279 8.333069 -0.061381 0.853054 -0.000009 0.000507 0.000021 20.552429 -25.020992 -15.591371 9.046748 3.779046 3.421895 8.670680 -0.237675 2.886908 -0.000225 0.000009 -0.000021 0.000000 0.000000 0.000000 0.000000 0.000000 0.000000 -96.467628 0.948189 4.300303 -58.407799 34.395935 -0.440788 -4.479170 -18.194902 58.114258 1.827040 -3.954145 -12.466315 -8.022358 1.497816 41.162312 -0.000015 0.000023 -19.563511 -0.000094 -0.000003 -13.790600 0.001135 -0.000027 0.001812 -6.130951 17.300262 -7.984737 -3.238316 -0.837774 1.978214 -3.304247 0.124592 1.851413 0.000033 0.000000 0.000013 -6.722212 7.105472 -10.160906 -3.800872 -0.943816 0.846653 -4.037579 0.053858 0.722216 0.000364 -0.000069 0.000033 -6.651610 -9.002984 -12.742383 -5.663422 1.920778 -1.293269 -5.526778 -0.076511 -0.987425 0.001232 -0.000011 -0.000004 -3.083565 -25.458935 -17.748322 -6.291082 3.741695 -3.669463 -6.373353 -0.254333 -3.132933 -0.000118 0.000000 -0.000054 0.000000 0.000000 0.000000 0.000000 0.000000 0.000000 -10.673554 7.425954 8.550468 -0.434848 -1.123262 24.046476 1.921280 2.467272 10.643551 -0.507864 -0.582413 -27.902044 0.000000 0.000000 0.000000 0.000000 0.000000 0.000000 0.000000 0.000000 0.000000 -1.028964 14.306120 19.243315 0.212711 0.933169 13.134823 2.244297 20.919811 13.019973 0.506049 0.639194 -27.709410 0.000000 0.000000 0.000000 0.000000 0.000000 0.000000 0.000000 0.000000 0.000000 
